<?xml version="1.0" encoding="UTF-8"?>
<svg id="Layer_1" xmlns="http://www.w3.org/2000/svg" version="1.1" viewBox="0 0 110 108">
  <!-- Generator: Adobe Illustrator 30.2.1, SVG Export Plug-In . SVG Version: 2.1.1 Build 1)  -->
  <defs>
    <style>
      .st0 {
        fill: #FFBEF6;
      }
    </style>
  </defs>
  <g>
    <path class="st0" d="M8.6,18.6h0s11.8,5,11.8,5l-.9,3.5-11.8-5-.3,1.2,11.8,5-.9,3.4-1.9-.8-3.4-1.5h0l-6.5-2.8-.3,1.2,5.2,2.2,6.6,2.8-.9,3.4-10.3-4.4-1.6-.7,3.6-12.7Z"/>
    <polygon class="st0" points="42.5 70.6 42.5 70.6 42.6 70.5 61.2 2.3 11.9 2.3 7.2 19.3 6.5 21.6 6.5 21.6 4 30.9 5 31.3 8.6 18.6 8.6 18.6 8.9 17.3 9.5 15.5 22.6 15.5 44 15.5 44 15.6 44 15.7 27 78 27 78 27 78.3 49 87.7 49 87.7 50 84.2 50 84.2 31.1 76.2 31.2 76.1 31.2 76 48.7 11.9 10.4 11.9 10.8 10.7 50.3 10.7 32.6 75.3 32.6 75.4 32.6 75.5 50.3 83 50.3 83 51.3 79.6 51.2 79.6 36.8 73.4 36.8 73.3 36.9 73.3 54.9 7.1 11.8 7.1 12.1 5.9 56.6 5.9 38.3 72.6 38.3 72.6 38.3 72.7 51.6 78.4 52.5 74.9 42.5 70.6"/>
  </g>
  <g>
    <path class="st0" d="M98,89.7h0s-11.8-5-11.8-5l.9-3.5,11.8,5,.3-1.2-11.8-5,.9-3.4,1.9.8,3.4,1.5h0l6.5,2.8.3-1.2-5.2-2.2-6.6-2.8.9-3.4,10.3,4.4,1.6.7-3.6,12.7Z"/>
    <polygon class="st0" points="64 37.8 64 37.8 64 37.8 45.3 106 94.7 106 99.4 89 100 86.7 100 86.7 102.6 77.4 101.6 77 98 89.7 98 89.7 97.6 91 97.1 92.9 84 92.9 62.5 92.9 62.5 92.7 62.5 92.7 79.5 30.3 79.5 30.3 79.6 30.1 57.5 20.7 57.5 20.7 56.5 24.1 56.5 24.1 75.4 32.2 75.4 32.3 75.4 32.3 57.8 96.4 96.1 96.4 95.7 97.6 56.2 97.6 73.9 33 73.9 33 74 32.9 56.2 25.4 56.2 25.3 55.3 28.8 55.3 28.8 69.7 34.9 69.7 35 69.7 35.1 51.6 101.2 94.8 101.2 94.4 102.4 50 102.4 68.2 35.8 68.2 35.7 68.2 35.7 55 29.9 54 33.4 64 37.8"/>
  </g>
</svg>